<?xml version="1.0" encoding="UTF-8" standalone="no"?>
<svg width="14px" height="14px" viewBox="0 0 14 14" version="1.1" xmlns="http://www.w3.org/2000/svg" xmlns:xlink="http://www.w3.org/1999/xlink">
    <!-- Generator: sketchtool 42 (36781) - http://www.bohemiancoding.com/sketch -->
    <title>493A0CFE-F9D5-4547-A484-9BD385EFA44B</title>
    <desc>Created with sketchtool.</desc>
    <defs></defs>
    <g id="Checkout" stroke="none" stroke-width="1" fill="none" fill-rule="evenodd">
        <g id="4.1-Checkout---Sign-Up" transform="translate(-990.000000, -974.000000)" fill="#E78F2B">
            <path d="M997,974 C993.122,974 990,977.121997 990,981 C990,984.878 993.122,988 997,988 C1000.878,988 1004,984.878 1004,981 C1004,977.121997 1000.878,974 997,974 Z M997.819401,976.333333 C998.092035,976.333333 998.320434,976.428015 998.505121,976.617101 C998.694207,976.806186 998.788889,977.034583 998.788889,977.302821 C998.788889,977.571058 998.694207,977.79976 998.505121,977.988845 C998.316037,978.177931 998.087638,978.272613 997.819401,978.272613 C997.555562,978.272613 997.328842,978.177931 997.139757,977.988845 C996.950672,977.79976 996.856293,977.571058 996.856293,977.302821 C996.856293,977.034583 996.948689,976.806186 997.133377,976.617101 C997.322462,976.428015 997.551164,976.333333 997.819401,976.333333 Z M998.228342,979.367578 L998.228342,979.444444 C998.220643,979.445567 998.21295,979.44637 998.205252,979.447483 L996.876042,984.057335 C996.801287,984.325575 996.763932,984.501521 996.763932,984.585069 C996.763932,984.633432 996.783601,984.679332 996.823177,984.723307 C996.862753,984.762881 996.904681,984.782856 996.948655,984.782856 C997.023409,984.782856 997.157763,984.790972 997.404384,984.673481 C997.633199,984.53485 998.133602,984.226549 998.410634,983.8 L998.944444,984.111111 C998.280448,985.26762 997.047545,985.666667 996.3,985.666667 C996.014174,985.666667 995.477702,985.587389 995.306207,985.42908 C995.139108,985.266384 995.055556,985.061913 995.055556,984.815668 C995.055556,984.652973 995.09291,984.446523 995.167665,984.195877 L996.084592,981.042839 C996.172538,980.739412 996.21645,980.666283 996.21645,980.51237 C996.21645,980.41563 996.174825,980.32979 996.091276,980.255035 C996.007727,980.180279 995.893376,980.142925 995.748264,980.142925 C995.682304,980.142925 995.603021,980.140089 995.510677,980.144444 L995.6,979.755556 C996.469768,979.637081 997.336662,979.572999 998.205252,979.447483 L998.228342,979.367578 Z" id="Shape"></path>
        </g>
    </g>
</svg>