<?xml version="1.0" encoding="UTF-8" standalone="no"?>
<svg width="14px" height="14px" viewBox="0 0 14 14" version="1.1" xmlns="http://www.w3.org/2000/svg" xmlns:xlink="http://www.w3.org/1999/xlink">
    <!-- Generator: sketchtool 42 (36781) - http://www.bohemiancoding.com/sketch -->
    <title>63E64715-0181-401D-860B-A1D1356E59DA</title>
    <desc>Created with sketchtool.</desc>
    <defs></defs>
    <g id="Checkout" stroke="none" stroke-width="1" fill="none" fill-rule="evenodd" stroke-opacity="0.7" fill-opacity="0.699999988">
        <g id="4.1.2-Checkout---Guest" transform="translate(-1200.000000, -886.000000)" stroke="#FFFFFF" stroke-width="0.5" fill="#FFFFFF">
            <g id="Group-17-Copy-2" transform="translate(978.000000, 865.000000)">
                <g id="Group-8" transform="translate(209.000000, 0.000000)">
                    <path d="M19.5555556,27.5555556 L12.4446309,27.5555556 C12.2022991,27.5555556 12,27.7545401 12,28 C12,28.2382812 12.199068,28.4444444 12.4446309,28.4444444 L19.5555556,28.4444444 L19.5555556,35.5553691 C19.5555556,35.7977009 19.7545401,36 20,36 C20.2471712,36 20.4444444,35.800932 20.4444444,35.5553691 L20.4444444,28.4444444 L27.5553691,28.4444444 C27.7977009,28.4444444 28,28.2454599 28,28 C28,27.7617188 27.800932,27.5555556 27.5553691,27.5555556 L20.4444444,27.5555556 L20.4444444,20.4446309 C20.4444444,20.2022991 20.2454599,20 20,20 C19.7528288,20 19.5555556,20.199068 19.5555556,20.4446309 L19.5555556,27.5555556 Z" id="Remove-from-Cart-Copy-2" transform="translate(20.000000, 28.000000) rotate(-315.000000) translate(-20.000000, -28.000000) "></path>
                </g>
            </g>
        </g>
    </g>
</svg>