<svg xmlns="http://www.w3.org/2000/svg" width="50" height="57" viewBox="0 0 50 57">
    <g fill="none" fill-rule="evenodd">
        <g fill="#030607">
            <rect width="50" height="50" rx="2"/>
            <path d="M19 50l6.45 6.38L31.83 50z"/>
        </g>
        <path fill="#FFF" fill-rule="nonzero" stroke="#FFF" stroke-width=".5" d="M25.453 12.003a.489.489 0 0 0-.199.06l-15.103 11.55c-.161.106-.205.392-.075.553.13.16.406.186.572.06l14.854-11.357 14.855 11.357c.166.126.429.1.56-.06.13-.16.108-.451-.063-.554l-15.103-11.55a.492.492 0 0 0-.298-.06zM15.169 21.65l-.795.602v13.222c0 .212.178.385.397.385h7.552c.22 0 .397-.173.397-.385V28.16h5.565v7.315c0 .212.178.385.397.385h7.552c.22 0 .397-.173.397-.385V22.253l-.795-.602V35.09H29.08v-7.315a.391.391 0 0 0-.398-.385h-6.36a.391.391 0 0 0-.397.385v7.315H15.17V21.65z"/>
    </g>
</svg>
